<svg width="94" height="94" viewBox="0 0 94 94" fill="none" xmlns="http://www.w3.org/2000/svg">
<g filter="url(#filter0_d_1_1432)">
<rect x="47" y="11.4118" width="44.2807" height="44.2807" rx="16.0412" transform="rotate(45 47 11.4118)" stroke="#D71920" stroke-width="2" shape-rendering="crispEdges"/>
</g>
<path d="M45.6747 54.5268V57.2386L45.019 56.7089C44.9176 56.627 42.5069 54.6698 40.0623 51.8631C36.69 47.9914 34.9801 44.5159 34.9801 41.5336V41.238C34.9801 35.341 39.7777 30.5434 45.6747 30.5434C51.5717 30.5434 56.3693 35.341 56.3693 41.238V41.5336C56.3693 41.7841 56.356 42.0384 56.3319 42.2958L54.2405 40.3878C53.8121 36.039 50.1342 32.6302 45.6747 32.6302C40.9284 32.6302 37.0669 36.4917 37.0669 41.238V41.5336C37.0669 46.5733 43.5602 52.6741 45.6747 54.5268ZM52.0914 53.028H55.2214V49.8979H52.0914V53.028ZM45.6747 36.8037C48.1198 36.8037 50.1091 38.793 50.1091 41.238C50.1091 43.6831 48.1198 45.6724 45.6747 45.6724C43.2297 45.6724 41.2404 43.6831 41.2404 41.238C41.2404 38.793 43.2297 36.8037 45.6747 36.8037ZM45.6747 38.8904C44.3802 38.8904 43.3271 39.9435 43.3271 41.238C43.3271 42.5324 44.3802 43.5856 45.6747 43.5856C46.969 43.5856 48.0223 42.5324 48.0223 41.238C48.0223 39.9435 46.969 38.8904 45.6747 38.8904ZM60.3495 51.61L59.7628 51.0748V54.4248C59.7628 55.9847 58.4936 57.2537 56.9337 57.2537H50.327C48.7671 57.2537 47.4979 55.9847 47.4979 54.4248V51.0748L46.9112 51.61L45.505 50.0685L53.6303 42.6557L61.7558 50.0685L60.3495 51.61ZM57.6761 49.1711L53.6303 45.4803L49.5847 49.1711V54.4246C49.5847 54.834 49.9177 55.167 50.327 55.167H56.9337C57.3431 55.167 57.6761 54.834 57.6761 54.4246V49.1711Z" fill="#D71920"/>
<defs>
<filter id="filter0_d_1_1432" x="-4.99496e-05" y="-0.000285769" width="94.0001" height="94.0006" filterUnits="userSpaceOnUse" color-interpolation-filters="sRGB">
<feFlood flood-opacity="0" result="BackgroundImageFix"/>
<feColorMatrix in="SourceAlpha" type="matrix" values="0 0 0 0 0 0 0 0 0 0 0 0 0 0 0 0 0 0 127 0" result="hardAlpha"/>
<feOffset dy="4.24616"/>
<feGaussianBlur stdDeviation="10.6154"/>
<feComposite in2="hardAlpha" operator="out"/>
<feColorMatrix type="matrix" values="0 0 0 0 0 0 0 0 0 0 0 0 0 0 0 0 0 0 0.05 0"/>
<feBlend mode="normal" in2="BackgroundImageFix" result="effect1_dropShadow_1_1432"/>
<feBlend mode="normal" in="SourceGraphic" in2="effect1_dropShadow_1_1432" result="shape"/>
</filter>
</defs>
</svg>
