<svg width="59" height="46" viewBox="0 0 59 46" fill="none" xmlns="http://www.w3.org/2000/svg">
<path d="M38.7391 22.3939C38.7391 36.4521 31.2724 43 18.7256 43C6.17884 43 0 38.2703 0 24.2121C0 10.154 4.55613 3 17.1029 3C29.6497 3 38.7391 8.33578 38.7391 22.3939Z" fill="#D71920" fill-opacity="0.21"/>
<path d="M24.5539 28.4277L26.3661 29.0526C29.8772 30.2632 29.9899 35.2499 26.4602 36.5711C26.4602 37.5191 25.7518 38.1188 24.9763 38.1188C24.2086 38.1188 23.4924 37.5281 23.4924 36.5711C21.9765 36.0036 20.8941 34.5405 20.8941 32.8288C20.8941 32.0093 21.5584 31.345 22.378 31.345C23.1975 31.345 23.8618 32.0093 23.8618 32.8288C23.8618 33.3949 24.3225 33.8556 24.8886 33.8556H25.064C26.2225 33.8556 26.4857 32.233 25.3987 31.8581L23.5864 31.2332C20.0755 30.0228 19.9627 25.036 23.4924 23.7148C23.4924 22.7668 24.2008 22.1671 24.9763 22.1671C25.744 22.1671 26.4602 22.7578 26.4602 23.7148C27.9761 24.2823 29.0585 25.7454 29.0585 27.4571C29.0585 28.2766 28.3942 28.9409 27.5747 28.9409C26.7551 28.9409 26.0908 28.2766 26.0908 27.4571C26.0908 26.891 25.6301 26.4303 25.064 26.4303H24.8887C23.7301 26.4302 23.4669 28.0528 24.5539 28.4277ZM37.2182 30.143C37.2182 36.8932 31.7265 42.3849 24.9763 42.3849C18.2261 42.3849 12.7344 36.8933 12.7344 30.143C12.7344 23.3926 18.2261 17.901 24.9763 17.901C31.7265 17.901 37.2182 23.3927 37.2182 30.143ZM34.2505 30.143C34.2505 25.0291 30.0902 20.8688 24.9763 20.8688C19.8624 20.8688 15.7021 25.0291 15.7021 30.143C15.7021 35.2568 19.8624 39.4171 24.9763 39.4171C30.0902 39.4171 34.2505 35.2568 34.2505 30.143ZM57.2505 39.4171H56.2303V14.9333C56.2303 14.1137 55.566 13.4494 54.7465 13.4494C53.9269 13.4494 53.2626 14.1137 53.2626 14.9333V39.4171H45.7505V20.8688C45.7505 20.0492 45.0862 19.3849 44.2666 19.3849C43.4471 19.3849 42.7828 20.0492 42.7828 20.8688V39.4171H36.4763C35.6567 39.4171 34.9924 40.0815 34.9924 40.901C34.9924 41.7206 35.6567 42.3849 36.4763 42.3849H57.2505C58.0701 42.3849 58.7344 41.7206 58.7344 40.901C58.7344 40.0815 58.0701 39.4171 57.2505 39.4171ZM35.5779 19.5995L40.8816 14.296L43.2174 16.6318C43.7969 17.2112 44.7365 17.2112 45.3159 16.6318L53.2626 8.68497V9.36876C53.2626 10.1883 53.9269 10.8526 54.7465 10.8526C55.566 10.8526 56.2303 10.1883 56.2303 9.36876C56.2303 4.65969 56.2374 5.05941 56.2139 4.89322C56.1421 4.38694 55.8094 3.93677 55.3138 3.73163C54.9468 3.57971 55.0605 3.61876 50.4803 3.61876C49.6608 3.61876 48.9965 4.28307 48.9965 5.10263C48.9965 5.92219 49.6608 6.5865 50.4803 6.5865H51.1641L44.2666 13.4839L41.9307 11.1481C41.3513 10.5687 40.4117 10.5687 39.8323 11.1481L33.4794 17.5009C32.8999 18.0804 32.8999 19.0199 33.4794 19.5994C34.0591 20.179 34.9985 20.1789 35.5779 19.5995Z" fill="#D71920"/>
</svg>
