<svg width="30" height="30" viewBox="0 0 30 30" fill="none" xmlns="http://www.w3.org/2000/svg">
<g clip-path="url(#clip0_0_80)">
<path d="M15 0C6.75586 0 0 6.75586 0 15C0 23.2441 6.75586 30 15 30C23.2441 30 30 23.2441 30 15C30 6.75586 23.2441 0 15 0Z" fill="#F9B334"/>
<path d="M30 15C30 23.2441 23.2441 30 15 30V0C23.2441 0 30 6.75586 30 15Z" fill="#DD8738"/>
<path d="M24.0878 11.9062L15 20.168L13.1894 21.8203L6.61517 15.2461L9.09375 12.7675L13.295 16.9687L15 15.4219L21.7325 9.30469L24.0878 11.9062Z" fill="#E7E7E7"/>
<path d="M24.0878 11.9062L15 20.168V15.4219L21.7325 9.30469L24.0878 11.9062Z" fill="#D3D3D8"/>
</g>
<defs>
<clipPath id="clip0_0_80">
<rect width="30" height="30" fill="white"/>
</clipPath>
</defs>
</svg>
