<svg width="27" height="27" viewBox="0 0 27 27" fill="none" xmlns="http://www.w3.org/2000/svg">
<path d="M18.5131 14.4559C19.8432 13.4153 20.814 11.9884 21.2905 10.3736C21.7671 8.75875 21.7256 7.0364 21.1719 5.44613C20.6182 3.85585 19.5798 2.47673 18.2012 1.50063C16.8225 0.524536 15.1723 0 13.4799 0C11.7875 0 10.1372 0.524536 8.75858 1.50063C7.37996 2.47673 6.34157 3.85585 5.78787 5.44613C5.23417 7.0364 5.1927 8.75875 5.66923 10.3736C6.14575 11.9884 7.11658 13.4153 8.44665 14.4559C6.16755 15.3639 4.17896 16.8698 2.69288 18.8133C1.20679 20.7567 0.278924 23.0647 0.00818319 25.4912C-0.0114144 25.6684 0.0042713 25.8477 0.0543443 26.0188C0.104417 26.1899 0.187897 26.3496 0.300018 26.4886C0.526455 26.7695 0.855806 26.9494 1.21562 26.9887C1.57543 27.0281 1.93622 26.9237 2.21863 26.6985C2.50104 26.4733 2.68194 26.1458 2.72152 25.788C3.01942 23.1509 4.28397 20.7153 6.27356 18.9467C8.26316 17.178 10.8383 16.2003 13.507 16.2003C16.1757 16.2003 18.7509 17.178 20.7405 18.9467C22.7301 20.7153 23.9946 23.1509 24.2925 25.788C24.3294 26.1195 24.4885 26.4257 24.739 26.6474C24.9895 26.8691 25.3138 26.9907 25.6492 26.9887H25.7984C26.154 26.948 26.4791 26.7692 26.7027 26.4912C26.9263 26.2133 27.0304 25.8587 26.9923 25.5047C26.7202 23.0713 25.7874 20.7574 24.2937 18.811C22.7999 16.8645 20.8017 15.3591 18.5131 14.4559ZM13.4799 13.4981C12.4066 13.4981 11.3574 13.1816 10.465 12.5886C9.57257 11.9957 8.87702 11.1529 8.46629 10.1669C8.05556 9.18083 7.9481 8.09582 8.15748 7.04905C8.36687 6.00227 8.88371 5.04075 9.64265 4.28607C10.4016 3.53139 11.3685 3.01745 12.4212 2.80923C13.4739 2.60102 14.565 2.70788 15.5566 3.11631C16.5482 3.52474 17.3957 4.21639 17.992 5.1038C18.5883 5.99121 18.9065 7.03452 18.9065 8.1018C18.9065 9.53298 18.3348 10.9055 17.3171 11.9175C16.2994 12.9295 14.9191 13.4981 13.4799 13.4981Z" fill="#111111"/>
</svg>
