<svg width="632" height="632" viewBox="0 0 632 632" fill="none" xmlns="http://www.w3.org/2000/svg">
<path d="M631.5 316C631.5 335.064 623.378 349.289 610.443 360.783C597.489 372.294 579.72 381.053 560.461 389.144C553.432 392.097 546.2 394.963 538.938 397.841C526.336 402.834 513.642 407.864 501.754 413.452C483.002 422.265 466.15 432.508 454.656 446.293C440.115 463.733 430.255 484.066 422.119 504.725C418.228 514.607 414.728 524.57 411.301 534.328L410.834 535.656C407.256 545.841 403.74 555.787 399.917 565.188C392.267 583.996 383.405 600.568 370.408 612.44C357.429 624.296 340.287 631.5 316 631.5C260.555 631.5 215.398 606.943 177.048 571.508C138.69 536.065 107.173 489.767 79.0142 446.341C70.9784 433.948 62.0378 423.538 53.1591 413.913C50.2674 410.778 47.3853 407.73 44.5437 404.724C38.65 398.49 32.9303 392.44 27.6595 386.186C12.0667 367.683 0.5 347.498 0.5 316C0.5 236.205 30.122 163.33 78.9702 107.77C136.791 42.0037 221.549 0.5 316 0.5C368.884 0.5 433.587 19.0369 485.072 44.8843C510.812 57.8069 533.222 72.5441 549.189 87.6825C565.174 102.837 574.62 118.315 574.62 132.72C574.62 160.902 587.776 188.556 601.39 217.173C601.962 218.376 602.535 219.58 603.108 220.787C617.334 250.741 631.5 281.849 631.5 316Z" fill="#F7D09B" stroke="black"/>
</svg>
