<svg width="22" height="21" viewBox="0 0 22 21" fill="none" xmlns="http://www.w3.org/2000/svg">
<path d="M0.330819 20.9998H5.95378V6.66021H0.330819V20.9998ZM1.60326 7.89423H4.68134V19.7658H1.60326V7.89423Z" fill="white"/>
<path d="M3.14319 0C1.41 0 0 1.30982 0 2.91978C0 4.52974 1.41 5.83961 3.14319 5.83961C4.87638 5.83961 6.28642 4.52978 6.28642 2.91978C6.28642 1.30978 4.87634 0 3.14319 0ZM1.27256 2.91978C1.27256 1.96164 2.11169 1.18211 3.14319 1.18211C4.17469 1.18211 5.01386 1.9616 5.01386 2.91978C5.01386 3.87797 4.17469 4.65749 3.14319 4.65749C2.11169 4.65749 1.27256 3.87793 1.27256 2.91978Z" fill="white"/>
<path d="M21.4306 11.1523C21.2305 8.35864 18.8298 6.20584 15.8535 6.20584C14.5222 6.20584 13.2655 6.65508 12.2753 7.45227V6.64532H6.8874V20.9981H12.5104V13.1483C12.5104 12.2636 13.2518 11.5438 14.1633 11.5438C15.0747 11.5438 15.8162 12.2636 15.8162 13.1486L15.8216 20.9982H21.4442V11.1656L21.4306 11.1523ZM11.238 19.7631H8.15982V7.88047H11.0029V9.64454L12.021 9.65022L12.2102 9.36515C13.0097 8.16027 14.3717 7.44101 15.8535 7.44101C18.2218 7.44101 20.118 9.195 20.1705 11.434L20.1717 19.7631H17.0932L17.0886 13.1483C17.0886 11.5825 15.7763 10.3087 14.1633 10.3087C12.5503 10.3087 11.238 11.5825 11.238 13.1483V19.7631Z" fill="white"/>
</svg>
