<svg width="250" height="65" viewBox="0 0 250 65" fill="none" xmlns="http://www.w3.org/2000/svg">
<g filter="url(#filter0_d_1_1363)">
<rect x="32.5" y="0.750623" width="44.9004" height="44.9004" rx="16.5104" transform="rotate(45 32.5 0.750623)" stroke="white" stroke-width="1.06154" shape-rendering="crispEdges"/>
</g>
<path d="M31.1838 44.2225V46.9157L30.5326 46.3896C30.432 46.3083 28.0379 44.3645 25.6101 41.5772C22.261 37.7321 20.5629 34.2806 20.5629 31.3188V31.0253C20.5629 25.1689 25.3274 20.4044 31.1838 20.4044C37.0402 20.4044 41.8047 25.1689 41.8047 31.0253V31.3188C41.8047 31.5676 41.7916 31.8201 41.7676 32.0758L39.6906 30.1809C39.2652 25.8621 35.6126 22.4767 31.1838 22.4767C26.4702 22.4767 22.6353 26.3117 22.6353 31.0253V31.3188C22.6353 36.3238 29.0839 42.3826 31.1838 44.2225ZM37.5563 42.734H40.6648V39.6256H37.5563V42.734ZM31.1838 26.6215C33.612 26.6215 35.5876 28.5971 35.5876 31.0253C35.5876 33.4535 33.612 35.4291 31.1838 35.4291C28.7556 35.4291 26.78 33.4535 26.78 31.0253C26.78 28.5971 28.7556 26.6215 31.1838 26.6215ZM31.1838 28.6938C29.8982 28.6938 28.8524 29.7397 28.8524 31.0253C28.8524 32.3107 29.8982 33.3567 31.1838 33.3567C32.4693 33.3567 33.5153 32.3107 33.5153 31.0253C33.5153 29.7397 32.4693 28.6938 31.1838 28.6938ZM45.7576 41.3259L45.1749 40.7943V44.1213C45.1749 45.6704 43.9144 46.9307 42.3653 46.9307H35.8041C34.255 46.9307 32.9945 45.6704 32.9945 44.1213V40.7943L32.4118 41.3259L31.0152 39.795L39.0846 32.4332L47.1542 39.795L45.7576 41.3259ZM43.1025 38.9037L39.0846 35.2384L35.0669 38.9037V44.1211C35.0669 44.5276 35.3976 44.8583 35.8041 44.8583H42.3653C42.7719 44.8583 43.1025 44.5276 43.1025 44.1211V38.9037Z" fill="white"/>
<g filter="url(#filter1_d_1_1363)">
<rect x="124.581" y="0.750623" width="44.9004" height="44.9004" rx="16.5104" transform="rotate(45 124.581 0.750623)" stroke="white" stroke-width="1.06154" shape-rendering="crispEdges"/>
</g>
<path d="M131.942 45.1092C127.241 45.1092 122.221 43.3819 118.296 39.4571C114.378 35.5387 112.644 30.5222 112.644 25.8116C112.644 21.6601 116.003 18.2944 120.162 18.2944C120.483 18.2944 120.772 18.4899 120.891 18.7882L124.257 27.2028C124.418 27.6056 124.222 28.0628 123.819 28.2239L120.122 29.7028C120.383 33.9565 123.798 37.3706 128.051 37.6318L129.53 33.9345C129.691 33.5323 130.148 33.3356 130.551 33.4968L138.965 36.8626C139.264 36.9819 139.459 37.2708 139.459 37.592C139.459 41.7435 136.1 45.1092 131.942 45.1092ZM119.639 19.8881C116.63 20.1484 114.216 22.6714 114.216 25.8116C114.216 30.5465 116.059 34.998 119.408 38.3461C122.756 41.6942 127.207 43.538 131.942 43.538C135.081 43.538 137.605 41.1249 137.866 38.1149L130.697 35.2473L129.306 38.7252C129.186 39.0235 128.897 39.219 128.576 39.219C123.039 39.219 118.535 34.7148 118.535 29.1783C118.535 28.8571 118.73 28.5673 119.028 28.448L122.506 27.0569L119.639 19.8881Z" fill="white"/>
<g filter="url(#filter2_d_1_1363)">
<rect x="216.667" y="0.750623" width="44.9004" height="44.9004" rx="16.5104" transform="rotate(45 216.667 0.750623)" stroke="white" stroke-width="1.06154" shape-rendering="crispEdges"/>
</g>
<path d="M229.176 24.3274H207.075C205.778 24.3274 204.718 25.3826 204.718 26.6842V40.8248C204.718 42.1268 205.779 43.1816 207.075 43.1816H229.176C230.473 43.1816 231.533 42.1263 231.533 40.8248V26.6842C231.533 25.3823 230.472 24.3274 229.176 24.3274ZM228.814 25.8986C228.052 26.6631 219.102 35.6425 218.734 36.0114C218.427 36.3195 217.824 36.3197 217.517 36.0114L207.437 25.8986H228.814ZM206.289 40.536V26.973L213.049 33.7545L206.289 40.536ZM207.437 41.6104L214.158 34.8673L216.404 37.1206C217.324 38.044 218.927 38.0437 219.847 37.1206L222.093 34.8674L228.814 41.6104H207.437ZM229.962 40.536L223.202 33.7545L229.962 26.973V40.536Z" fill="white"/>
<defs>
<filter id="filter0_d_1_1363" x="-14.1763" y="-9.92895" width="93.3526" height="93.3531" filterUnits="userSpaceOnUse" color-interpolation-filters="sRGB">
<feFlood flood-opacity="0" result="BackgroundImageFix"/>
<feColorMatrix in="SourceAlpha" type="matrix" values="0 0 0 0 0 0 0 0 0 0 0 0 0 0 0 0 0 0 127 0" result="hardAlpha"/>
<feOffset dy="4.24616"/>
<feGaussianBlur stdDeviation="10.6154"/>
<feComposite in2="hardAlpha" operator="out"/>
<feColorMatrix type="matrix" values="0 0 0 0 0 0 0 0 0 0 0 0 0 0 0 0 0 0 0.05 0"/>
<feBlend mode="normal" in2="BackgroundImageFix" result="effect1_dropShadow_1_1363"/>
<feBlend mode="normal" in="SourceGraphic" in2="effect1_dropShadow_1_1363" result="shape"/>
</filter>
<filter id="filter1_d_1_1363" x="77.9052" y="-9.92895" width="93.3526" height="93.3531" filterUnits="userSpaceOnUse" color-interpolation-filters="sRGB">
<feFlood flood-opacity="0" result="BackgroundImageFix"/>
<feColorMatrix in="SourceAlpha" type="matrix" values="0 0 0 0 0 0 0 0 0 0 0 0 0 0 0 0 0 0 127 0" result="hardAlpha"/>
<feOffset dy="4.24616"/>
<feGaussianBlur stdDeviation="10.6154"/>
<feComposite in2="hardAlpha" operator="out"/>
<feColorMatrix type="matrix" values="0 0 0 0 0 0 0 0 0 0 0 0 0 0 0 0 0 0 0.05 0"/>
<feBlend mode="normal" in2="BackgroundImageFix" result="effect1_dropShadow_1_1363"/>
<feBlend mode="normal" in="SourceGraphic" in2="effect1_dropShadow_1_1363" result="shape"/>
</filter>
<filter id="filter2_d_1_1363" x="169.991" y="-9.92895" width="93.3526" height="93.3531" filterUnits="userSpaceOnUse" color-interpolation-filters="sRGB">
<feFlood flood-opacity="0" result="BackgroundImageFix"/>
<feColorMatrix in="SourceAlpha" type="matrix" values="0 0 0 0 0 0 0 0 0 0 0 0 0 0 0 0 0 0 127 0" result="hardAlpha"/>
<feOffset dy="4.24616"/>
<feGaussianBlur stdDeviation="10.6154"/>
<feComposite in2="hardAlpha" operator="out"/>
<feColorMatrix type="matrix" values="0 0 0 0 0 0 0 0 0 0 0 0 0 0 0 0 0 0 0.05 0"/>
<feBlend mode="normal" in2="BackgroundImageFix" result="effect1_dropShadow_1_1363"/>
<feBlend mode="normal" in="SourceGraphic" in2="effect1_dropShadow_1_1363" result="shape"/>
</filter>
</defs>
</svg>
