<svg width="30" height="30" viewBox="0 0 30 30" fill="none" xmlns="http://www.w3.org/2000/svg">
<path d="M28.5 28.3483L19.5 19.3989M1.49998 11.941C1.49998 13.3122 1.77157 14.6699 2.29925 15.9366C2.82692 17.2034 3.60035 18.3544 4.57536 19.3239C5.55038 20.2935 6.70789 21.0626 7.98181 21.5873C9.25574 22.112 10.6211 22.382 12 22.382C13.3789 22.382 14.7443 22.112 16.0182 21.5873C17.2921 21.0626 18.4496 20.2935 19.4246 19.3239C20.3996 18.3544 21.1731 17.2034 21.7007 15.9366C22.2284 14.6699 22.5 13.3122 22.5 11.941C22.5 10.5699 22.2284 9.21218 21.7007 7.94541C21.1731 6.67865 20.3996 5.52764 19.4246 4.5581C18.4496 3.58856 17.2921 2.81948 16.0182 2.29477C14.7443 1.77006 13.3789 1.5 12 1.5C10.6211 1.5 9.25574 1.77006 7.98181 2.29477C6.70789 2.81948 5.55038 3.58856 4.57536 4.5581C3.60035 5.52764 2.82692 6.67865 2.29925 7.94541C1.77157 9.21218 1.49998 10.5699 1.49998 11.941Z" stroke="#111111" stroke-width="2.91667" stroke-linecap="round" stroke-linejoin="round"/>
</svg>
