<svg width="33" height="33" viewBox="0 0 33 33" fill="none" xmlns="http://www.w3.org/2000/svg">
<g clip-path="url(#clip0_0_248)">
<path d="M32.6219 15.5875C32.6215 15.5871 32.6212 15.5867 32.6208 15.5863L25.8851 8.88318C25.3805 8.38103 24.5644 8.3829 24.0621 8.88757C23.5599 9.39217 23.5618 10.2083 24.0664 10.7106L28.5887 15.2109H1.28906C0.577113 15.2109 0 15.788 0 16.5C0 17.2119 0.577113 17.7891 1.28906 17.7891H28.5886L24.0665 22.2894C23.5619 22.7917 23.5599 23.6078 24.0622 24.1124C24.5644 24.6172 25.3807 24.6189 25.8852 24.1168L32.6208 17.4137C32.6212 17.4133 32.6215 17.4128 32.622 17.4125C33.1268 16.9086 33.1252 16.0898 32.6219 15.5875Z" fill="black"/>
</g>
<defs>
<clipPath id="clip0_0_248">
<rect width="33" height="33" fill="white"/>
</clipPath>
</defs>
</svg>
