<svg width="42" height="35" viewBox="0 0 42 35" fill="none" xmlns="http://www.w3.org/2000/svg">
<path d="M31.1786 15.1169C31.1786 26.0747 25.1691 31.1786 15.071 31.1786C4.97295 31.1786 0 27.4919 0 16.5341C0 5.57626 3.66694 0 13.765 0C23.8631 0 31.1786 4.15905 31.1786 15.1169Z" fill="#F2CF7A" fill-opacity="0.44"/>
<g clip-path="url(#clip0_0_452)">
<path d="M32.1502 24.5252H30.2322L29.2358 24.0818V22.872C30.6309 22.1034 31.7253 20.8542 32.2948 19.349H33.1496C35.185 19.349 36.841 17.693 36.841 15.6576C36.841 14.3433 36.15 13.1879 35.1127 12.5337V12.1128C35.1128 7.08794 31.0248 3 26 3C20.9752 3 16.8872 7.08794 16.8872 12.1128V12.5334C15.8497 13.1876 15.1585 14.3431 15.1585 15.6576C15.1585 17.693 16.8145 19.349 18.8499 19.349H19.7051C20.2746 20.8542 21.3691 22.1034 22.7641 22.872V24.0768L21.7566 24.5252H19.8497C14.4186 24.5253 10 28.9439 10 34.375C10 34.7201 10.2798 35 10.625 35H23.1875C23.5327 35 23.8125 34.7201 23.8125 34.375C23.8125 34.0299 23.5327 33.75 23.1875 33.75H11.2724C11.5841 29.4307 15.0999 25.9855 19.4484 25.7847C19.4468 25.79 19.4446 25.795 19.4431 25.8002C19.3924 25.9784 19.4233 26.1697 19.5274 26.3229L22.484 30.6694C22.5887 30.8234 22.7567 30.9226 22.9421 30.9401C22.9617 30.9419 22.9813 30.9429 23.0009 30.9429C23.1658 30.9429 23.325 30.8776 23.4427 30.7598L25.9944 28.2081L28.5461 30.7598C28.6638 30.8776 28.8231 30.9429 28.9879 30.9429C29.0074 30.9429 29.0271 30.9419 29.0467 30.9401C29.2321 30.9226 29.4001 30.8234 29.5048 30.6694L32.4614 26.3229C32.5656 26.1698 32.5964 25.9783 32.5458 25.8002C32.5443 25.7948 32.542 25.7897 32.5403 25.7844C36.8941 25.9797 40.4157 29.4271 40.7276 33.7501H28.8125C28.4674 33.7501 28.1875 34.0299 28.1875 34.3751C28.1875 34.7202 28.4674 35.0001 28.8125 35.0001H41.375C41.7201 35.0001 42 34.7202 42 34.3751C42 28.9439 37.5814 24.5252 32.1502 24.5252ZM31.4648 12.7261C30.1807 12.5498 28.9757 12.0381 27.9519 11.2281C27.7275 11.0505 27.4109 11.0481 27.1838 11.2224C25.8411 12.2526 24.235 12.7971 22.5391 12.7971C21.8585 12.7971 21.1874 12.7064 20.5373 12.5302V12.2124C20.5373 9.20044 22.9878 6.75 25.9998 6.75C29.0117 6.75 31.4622 9.20044 31.4622 12.2124C31.4623 12.2124 31.4635 12.7093 31.4648 12.7261ZM33.1496 18.0991H32.7273V13.2161H33.1496C34.4959 13.2161 35.5911 14.3113 35.5911 15.6576C35.5911 17.0038 34.4959 18.0991 33.1496 18.0991ZM26 4.25C30.3098 4.25 33.8202 7.73556 33.8618 12.0358C33.6313 11.9905 33.3932 11.9661 33.1496 11.9661H32.7073C32.5771 8.37856 29.6186 5.5 25.9998 5.5C22.3809 5.5 19.4224 8.37856 19.2922 11.9661H18.85C18.6065 11.9661 18.3687 11.9904 18.1382 12.0357C18.1798 7.73556 21.6903 4.25 26 4.25ZM19.2723 18.0991H18.85C17.5038 18.0991 16.4086 17.0038 16.4086 15.6576C16.4086 14.3113 17.5038 13.2161 18.85 13.2161H19.2723L19.2723 18.0991ZM20.5223 16.9753V13.8166C21.1807 13.9696 21.8561 14.0471 22.5391 14.0471C24.3528 14.0471 26.0784 13.5118 27.5591 12.4943C28.7228 13.3145 30.0617 13.8238 31.4772 13.9871V17.0089C31.4737 17.5948 31.3777 18.1591 31.2031 18.6881H28.2185C27.9603 17.9578 27.2632 17.4331 26.4457 17.4331H25.6091C24.5724 17.4331 23.7291 18.2764 23.7291 19.3131C23.7291 20.3497 24.5724 21.1931 25.6091 21.1931H26.4457C27.2633 21.1931 27.9603 20.6683 28.2185 19.9381H30.6052C29.6293 21.45 27.9296 22.453 26 22.453C22.9796 22.453 20.5223 19.9958 20.5223 16.9753ZM27.0758 19.3131C27.0758 19.6605 26.7932 19.9431 26.4458 19.9431H25.6091C25.2618 19.9431 24.9792 19.6605 24.9792 19.3131C24.9792 18.9656 25.2618 18.6831 25.6091 18.6831H26.4458C26.7932 18.6831 27.0758 18.9656 27.0758 19.3131ZM26 23.703C26.691 23.703 27.3579 23.5981 27.9858 23.4037V24.4489L25.9944 26.4403L24.0141 24.46V23.4037C24.6421 23.5981 25.309 23.703 26 23.703ZM23.0928 29.3419L20.9817 26.2383L23.0874 25.3012L25.1105 27.3242L23.0928 29.3419ZM28.896 29.3419L26.8783 27.3242L28.9014 25.3012L31.0072 26.2383L28.896 29.3419Z" fill="#755403"/>
<path d="M26 33.75C25.8356 33.75 25.6744 33.8168 25.5581 33.9331C25.4419 34.0494 25.375 34.2106 25.375 34.375C25.375 34.5394 25.4418 34.7006 25.5581 34.8168C25.6744 34.9331 25.8356 35 26 35C26.1644 35 26.3256 34.9331 26.4418 34.8168C26.5581 34.7006 26.625 34.5394 26.625 34.375C26.625 34.2106 26.5581 34.0494 26.4418 33.9331C26.3256 33.8168 26.1644 33.75 26 33.75Z" fill="#755403"/>
</g>
<defs>
<clipPath id="clip0_0_452">
<rect width="32" height="32" fill="white" transform="translate(10 3)"/>
</clipPath>
</defs>
</svg>
