<svg width="20" height="20" viewBox="0 0 20 20" fill="none" xmlns="http://www.w3.org/2000/svg">
<path d="M20 10.0019C20 15.5296 15.5379 19.9916 10.0103 19.9916C4.48266 19.9916 0.0205926 15.5296 0.0205926 10.0019C0.0205926 4.47431 4.48266 0.0122575 10.0103 0.0122575C15.5379 0.0122575 20 4.47431 20 10.0019Z" fill="#FFDD67"/>
<path d="M19.9338 3.74177C19.7673 2.84269 19.2678 2.11012 18.4353 1.87703C17.5363 1.64393 16.7371 1.97692 15.9712 2.7761C15.5383 1.57733 14.8723 0.678264 13.8068 0.212078C12.7412 -0.254107 11.6756 0.0788827 11.0097 0.911356C10.3104 1.77713 10.044 3.14239 10.7766 4.90723C11.4758 6.57218 14.5726 9.90207 14.6725 10.002C14.8057 9.93537 18.2688 7.77094 19.1013 6.70537C19.9338 5.6731 20.1003 4.64084 19.9338 3.74177ZM9.01172 0.911356C8.34574 0.0788827 7.28017 -0.254107 6.2146 0.212078C5.14903 0.678264 4.48305 1.57733 4.05016 2.7761C3.25099 2.01022 2.45181 1.64393 1.55274 1.91032C0.753562 2.14342 0.220778 2.87599 0.0542833 3.77506C-0.112212 4.64084 0.0875823 5.7064 0.886758 6.73867C1.75253 7.77094 5.21563 9.93537 5.34883 10.002C5.44872 9.90207 8.54553 6.57218 9.24481 4.90723C9.97739 3.14239 9.71099 1.81043 9.01172 0.911356Z" fill="#F46767"/>
<path d="M15.6717 12.033C15.6717 11.7666 15.5052 11.4336 15.0723 11.3337C13.9069 11.1006 12.2086 10.9008 10.0109 10.9008C7.81316 10.9008 6.11491 11.1339 4.94944 11.3337C4.48326 11.4336 4.35006 11.7666 4.35006 12.033C4.35006 14.4638 6.21481 16.8946 10.0109 16.8946C13.807 16.8613 15.6717 14.4305 15.6717 12.033Z" fill="#664E27"/>
<path d="M14.2398 12.0997C13.5072 11.9665 11.9754 11.7667 10.0108 11.7667C8.04616 11.7667 6.51441 11.9665 5.78183 12.0997C5.34894 12.1663 5.31564 12.3328 5.34894 12.5992C5.38224 12.7324 5.38224 12.9322 5.44884 13.132C5.48214 13.3318 5.54874 13.4317 5.88173 13.3984C6.51441 13.3318 13.5405 13.3318 14.1732 13.3984C14.5062 13.4317 14.5395 13.3318 14.6061 13.132C14.6394 12.9322 14.6727 12.7657 14.706 12.5992C14.706 12.3328 14.6727 12.1663 14.2398 12.0997Z" fill="white"/>
</svg>
