<svg width="42" height="35" viewBox="0 0 42 35" fill="none" xmlns="http://www.w3.org/2000/svg">
<path d="M31.1786 15.1169C31.1786 26.0747 25.1691 31.1786 15.071 31.1786C4.97295 31.1786 0 27.4919 0 16.5341C0 5.57626 3.66694 0 13.765 0C23.8631 0 31.1786 4.15905 31.1786 15.1169Z" fill="#F2CF7A" fill-opacity="0.44"/>
<path d="M40.0282 5.50586H11.9718C10.8845 5.50586 10 6.39036 10 7.47761V26.5159C10 27.6032 10.8845 28.4877 11.9718 28.4877H21.4609L21.0771 31.5582H19.4869C19.2279 31.5582 19.0181 31.7681 19.0181 32.027C19.0181 32.2859 19.2279 32.4957 19.4869 32.4957H32.5131C32.7721 32.4957 32.9819 32.2859 32.9819 32.027C32.9819 31.7681 32.7721 31.5582 32.5131 31.5582H30.9229L30.5391 28.4877H40.0282C41.1154 28.4877 42 27.6032 42 26.5159V7.47761C42 6.39036 41.1155 5.50586 40.0282 5.50586ZM22.0219 31.5582L22.4058 28.4877H24.131L24.3003 29.1645C24.4956 29.946 25.1946 30.4917 26.0001 30.4917C26.8055 30.4917 27.5045 29.946 27.6999 29.1645L27.8691 28.4877H29.5943L29.9781 31.5582H22.0219ZM25.0973 28.4877H26.9026L26.7903 28.9372C26.6994 29.3005 26.3745 29.5542 25.9999 29.5542C25.6254 29.5542 25.3005 29.3004 25.2096 28.9372L25.0973 28.4877ZM41.0625 26.5159C41.0625 27.0862 40.5985 27.5502 40.0282 27.5502H11.9718C11.4015 27.5502 10.9375 27.0862 10.9375 26.5159V7.47761C10.9375 6.9073 11.4015 6.44336 11.9718 6.44336H40.0282C40.5985 6.44336 41.0625 6.9073 41.0625 7.47761V26.5159Z" fill="#755403"/>
<path d="M36.521 7.50977H12.4727C12.2137 7.50977 12.0039 7.71958 12.0039 7.97852V26.0148C12.0039 26.2737 12.2137 26.4835 12.4727 26.4835H13.4747C13.7337 26.4835 13.9435 26.2737 13.9435 26.0148C13.9435 25.7559 13.7337 25.546 13.4748 25.546H12.9415V8.44727H36.521C36.78 8.44727 36.9898 8.23739 36.9898 7.97852C36.9898 7.71958 36.78 7.50977 36.521 7.50977Z" fill="#755403"/>
<path d="M39.5269 7.50977H38.5248C38.2659 7.50977 38.0561 7.71958 38.0561 7.97852C38.0561 8.23739 38.2659 8.44727 38.5248 8.44727H39.0581V25.546H15.4785C15.2196 25.546 15.0098 25.7559 15.0098 26.0148C15.0098 26.2737 15.2196 26.4835 15.4785 26.4835H39.5268C39.7858 26.4835 39.9956 26.2737 39.9956 26.0148V7.97852C39.9956 7.71958 39.7858 7.50977 39.5269 7.50977Z" fill="#755403"/>
<path d="M32.3816 12.6996C32.2973 12.5919 32.1703 12.5264 32.0338 12.5202L21.0116 12.0191C21.003 12.0188 20.9946 12.0186 20.9859 12.0187C20.9206 11.8045 20.7828 11.6188 20.5961 11.4943L19.2463 10.5944C19.031 10.4508 18.7399 10.509 18.5963 10.7244C18.4528 10.9399 18.511 11.2309 18.7263 11.3744L20.0761 12.2742C20.0825 12.2784 20.0871 12.2849 20.0893 12.2923L21.8086 18.3098C21.8622 18.4974 21.9505 18.6661 22.0638 18.8117L21.4347 20.0698C21.2833 20.3726 21.2991 20.7253 21.4771 21.0133C21.5417 21.1178 21.6236 21.2067 21.7176 21.2779C21.5945 21.4929 21.5237 21.7415 21.5237 22.0065C21.5237 22.8175 22.1835 23.4773 22.9945 23.4773C23.8054 23.4773 24.4652 22.8174 24.4652 22.0065C24.4652 21.8184 24.4293 21.6387 24.3647 21.4732H28.6383C28.5736 21.6387 28.5378 21.8184 28.5378 22.0065C28.5378 22.8175 29.1976 23.4773 30.0085 23.4773C30.8195 23.4773 31.4793 22.8174 31.4793 22.0065C31.4793 21.7712 31.4235 21.5489 31.3248 21.3516C31.4195 21.2658 31.4793 21.1423 31.4793 21.0045C31.4793 20.7456 31.2695 20.5357 31.0105 20.5357H22.3019C22.2952 20.5357 22.2839 20.5357 22.2745 20.5204C22.265 20.5052 22.2701 20.4951 22.2731 20.4891L22.8526 19.3301C22.9705 19.3604 23.0934 19.3768 23.2191 19.3768C23.2771 19.3768 23.3356 19.3734 23.3945 19.3665L29.9811 18.5916C30.8318 18.4915 31.5162 17.86 31.6842 17.02L32.4721 13.0804C32.4989 12.9463 32.4658 12.8073 32.3816 12.6996ZM30.0084 21.4734C30.3025 21.4734 30.5416 21.7126 30.5416 22.0066C30.5416 22.3007 30.3025 22.5399 30.0084 22.5399C29.7143 22.5399 29.4751 22.3007 29.4751 22.0066C29.4751 21.7126 29.7143 21.4734 30.0084 21.4734ZM22.9943 21.4734C23.2884 21.4734 23.5276 21.7126 23.5276 22.0066C23.5276 22.3007 23.2884 22.5399 22.9943 22.5399C22.7003 22.5399 22.4611 22.3007 22.4611 22.0066C22.4611 21.7126 22.7003 21.4734 22.9943 21.4734ZM21.8448 15.0247L21.2574 12.9688L23.1315 13.054L23.4564 15.0247H21.8448ZM23.285 18.4354C23.0236 18.4662 22.782 18.305 22.7099 18.0523L22.1127 15.9622H23.611L24.0048 18.3507L23.285 18.4354ZM26.0326 18.1122L24.9369 18.2411L24.5612 15.9623H26.0326V18.1122ZM26.0326 15.0247H24.4066L24.0888 13.0976L26.0326 13.1859V15.0247ZM28.4065 17.8329L26.9701 18.0019V15.9622H28.5758L28.4065 17.8329ZM28.6607 15.0247H26.9701V13.2285L28.8157 13.3124L28.6607 15.0247ZM30.7648 16.8363C30.6767 17.2768 30.3177 17.6081 29.8715 17.6606L29.358 17.721L29.5171 15.9623H30.9396L30.7648 16.8363ZM31.1271 15.0247H29.6021L29.7532 13.355L31.4457 13.4319L31.1271 15.0247Z" fill="#755403"/>
</svg>
