<svg width="11" height="10" viewBox="0 0 11 10" fill="none" xmlns="http://www.w3.org/2000/svg">
<path d="M1.66659 3.33318C2.58702 3.33318 3.33318 2.58702 3.33318 1.66659C3.33318 0.746157 2.58702 0 1.66659 0C0.746157 0 0 0.746157 0 1.66659C0 2.58702 0.746157 3.33318 1.66659 3.33318Z" fill="#664E27"/>
<path d="M9.33338 3.33318C10.2538 3.33318 11 2.58702 11 1.66659C11 0.746157 10.2538 0 9.33338 0C8.41295 0 7.6668 0.746157 7.6668 1.66659C7.6668 2.58702 8.41295 3.33318 9.33338 3.33318Z" fill="#664E27"/>
<path d="M9.69892 6.23303C6.99905 8.13295 3.99919 8.09961 1.29932 6.23303C0.966003 5.99971 0.699349 6.39969 0.899339 6.76634C1.73263 8.09961 3.36589 9.33289 5.49912 9.33289C7.63235 9.33289 9.26561 8.13295 10.0989 6.76634C10.2989 6.39969 10.0322 5.99971 9.69892 6.23303Z" fill="#664E27"/>
</svg>
