<svg width="58" height="40" viewBox="0 0 58 40" fill="none" xmlns="http://www.w3.org/2000/svg">
<path d="M38.7391 19.3939C38.7391 33.4521 31.2724 40 18.7256 40C6.17884 40 0 35.2703 0 21.2121C0 7.15396 4.55613 0 17.1029 0C29.6497 0 38.7391 5.33578 38.7391 19.3939Z" fill="#D71920" fill-opacity="0.21"/>
<g clip-path="url(#clip0_0_56)">
<path d="M56.6464 21.1356C57.4387 22.3714 57.6751 23.8935 57.2952 25.3114C56.9153 26.7293 55.9495 27.9292 54.6454 28.6034C54.0814 28.8949 53.659 29.392 53.5154 29.933C53.294 30.7671 52.4383 31.264 51.6041 31.0422C50.77 30.8208 50.2734 29.9651 50.4948 29.1309C50.8664 27.7314 51.8562 26.5271 53.2103 25.8272C53.7427 25.552 54.1214 25.0815 54.2765 24.5025C54.4316 23.9237 54.3389 23.3269 54.0154 22.8223C52.9163 21.1078 52.9163 18.8922 54.0154 17.1777C54.3389 16.6731 54.4316 16.0763 54.2765 15.4975C54.1213 14.9185 53.7427 14.448 53.2103 14.1728C51.4011 13.2376 50.2934 11.3189 50.3879 9.28442C50.4157 8.68578 50.1977 8.12261 49.7739 7.69883C49.3501 7.27497 48.7873 7.05589 48.1882 7.08479C46.1539 7.17855 44.2351 6.07167 43.2998 4.26247C43.0246 3.73009 42.5542 3.35139 41.9753 3.1963C41.3962 3.04121 40.7995 3.13395 40.295 3.45741C38.5805 4.55655 36.3648 4.55655 34.6503 3.45741C34.1457 3.13395 33.549 3.04136 32.97 3.1963C32.3912 3.35139 31.9207 3.73009 31.6455 4.26247C30.7101 6.07159 28.7905 7.1784 26.7571 7.08479C26.158 7.05682 25.5952 7.27512 25.1714 7.69883C24.7476 8.12253 24.5296 8.68578 24.5574 9.28449C24.652 11.3189 23.5442 13.2377 21.735 14.1728C21.2027 14.448 20.824 14.9185 20.6689 15.4975C20.5138 16.0763 20.6064 16.6731 20.93 17.1777C22.029 18.8922 22.029 21.1078 20.93 22.8223C20.6064 23.3269 20.5138 23.9237 20.6689 24.5025C20.824 25.0815 21.2027 25.552 21.7351 25.8272C23.5442 26.7624 24.652 28.6811 24.5574 30.7156C24.5296 31.3142 24.7477 31.8774 25.1715 32.3012C25.5953 32.725 26.1583 32.9437 26.7571 32.9152C28.7908 32.8212 30.7103 33.9282 31.6456 35.7375C31.9207 36.2699 32.3912 36.6486 32.9701 36.8037C33.5491 36.9587 34.1458 36.866 34.6503 36.5426C36.3649 35.4434 38.5805 35.4434 40.295 36.5426C40.7997 36.8661 41.3964 36.9587 41.9753 36.8037C42.5542 36.6486 43.0246 36.2699 43.2999 35.7375C44.0277 34.3296 45.2921 33.3848 46.8601 33.077C47.7071 32.911 48.5282 33.4627 48.6944 34.3094C48.8605 35.1563 48.3088 35.9776 47.4619 36.1438C46.8225 36.2692 46.3692 36.6058 46.0762 37.1726C45.4021 38.4767 44.2022 39.4426 42.7843 39.8224C41.3665 40.2024 39.8443 39.966 38.6084 39.1736C37.9185 38.7312 37.0271 38.7313 36.3372 39.1736C35.4882 39.7178 34.504 39.9998 33.5114 39.9999C33.0591 39.9999 32.6052 39.9414 32.1614 39.8224C30.7435 39.4426 29.5436 38.4767 28.8695 37.1727C28.4932 36.4448 27.7215 35.9985 26.9025 36.0371C25.4363 36.1053 23.9997 35.5491 22.9618 34.511C21.9237 33.4731 21.3676 32.0367 21.4357 30.5703C21.4738 29.7517 21.028 28.9797 20.3002 28.6033C18.9961 27.9291 18.0303 26.7293 17.6504 25.3113C17.2704 23.8933 17.5069 22.3714 18.2992 21.1356C18.7415 20.4457 18.7415 19.5542 18.2992 18.8643C17.5069 17.6285 17.2704 16.1064 17.6504 14.6885C18.0303 13.2706 18.9961 12.0707 20.3002 11.3965C21.0281 11.0203 21.4738 10.2482 21.4358 9.42958C21.3676 7.96314 21.9238 6.52686 22.9619 5.48881C23.9998 4.45084 25.4357 3.89525 26.9026 3.96284C27.7202 4.00143 28.4933 3.55523 28.8696 2.8272C29.5437 1.5232 30.7436 0.557345 32.1615 0.177472C33.5795 -0.202323 35.1015 0.0340235 36.3374 0.826349C37.0272 1.26857 37.9187 1.26849 38.6087 0.826349C39.8445 0.0341016 41.3664 -0.202557 42.7845 0.177472C44.2024 0.557345 45.4022 1.5232 46.0763 2.8272C46.4526 3.55515 47.2238 4.00042 48.0433 3.96284C49.5094 3.89424 50.9461 4.45077 51.9841 5.48889C53.0221 6.52686 53.5782 7.96322 53.5101 9.42958C53.4721 10.2482 53.9178 11.0202 54.6457 11.3966C55.9498 12.0708 56.9155 13.2706 57.2955 14.6886C57.6754 16.1065 57.4389 17.6286 56.6467 18.8644C56.2042 19.5542 56.2041 20.4457 56.6464 21.1356ZM37.4743 30.3914C38.3373 30.3914 39.0369 29.6918 39.0369 28.8288V27.924C41.1864 27.625 42.7888 25.8651 42.7888 23.6721V22.7222C42.7888 21.5414 42.3265 20.4384 41.4873 19.6164C40.6597 18.8057 39.5579 18.3592 38.3848 18.3592H36.9529C36.2645 18.3592 35.683 17.751 35.683 17.031V16.4611C35.683 15.7615 36.229 15.234 36.9529 15.234H38.307C38.705 15.234 39.1166 15.5004 39.1166 15.9462C39.1166 16.8093 39.8162 17.5089 40.6792 17.5089C41.5423 17.5089 42.2418 16.8093 42.2418 15.9462C42.2418 14.0735 40.8589 12.5108 39.0369 12.176V11.1712C39.0369 10.3082 38.3373 9.60858 37.4743 9.60858C36.6113 9.60858 35.9117 10.3082 35.9117 11.1712V12.2297C35.1382 12.4122 34.4298 12.7979 33.8553 13.36C33.0186 14.1788 32.5577 15.2801 32.5577 16.4611V17.0309C32.5577 19.4866 34.5294 21.4844 36.9529 21.4844H38.3848C39.1018 21.4844 39.6635 22.028 39.6635 22.7221V23.6721C39.6635 24.4415 39.0203 24.844 38.3848 24.844H36.0577C35.6856 24.844 35.285 24.6301 35.285 24.1605C35.285 23.2974 34.5854 22.5979 33.7224 22.5979C32.8593 22.5979 32.1597 23.2974 32.1597 24.1605C32.1597 26.2484 33.7963 27.893 35.9116 27.9658V28.8287C35.9117 29.6918 36.6113 30.3914 37.4743 30.3914Z" fill="#D71920"/>
</g>
<defs>
<clipPath id="clip0_0_56">
<rect width="40" height="40" fill="white" transform="translate(17.4727)"/>
</clipPath>
</defs>
</svg>
