<svg width="20" height="20" viewBox="0 0 20 20" fill="none" xmlns="http://www.w3.org/2000/svg">
<path d="M0 9.99987C0 15.5331 4.46662 19.9997 9.99989 19.9997C15.5332 19.9997 19.9998 15.5331 19.9998 9.99987C19.9998 4.46661 15.5332 0 9.99989 0C4.46662 0 0 4.46661 0 9.99987Z" fill="#FFDD67"/>
<path d="M15.5 4.7666C15.5 8.06656 20 8.06656 20 4.7666C20 2.36664 17.7667 0 17.7667 0C17.7667 0 15.5 2.36664 15.5 4.7666Z" fill="#65B1EF"/>
<path d="M13.8345 12.9997C14.755 12.9997 15.5012 12.2536 15.5012 11.3331C15.5012 10.4126 14.755 9.66645 13.8345 9.66645C12.9141 9.66645 12.1679 10.4126 12.1679 11.3331C12.1679 12.2536 12.9141 12.9997 13.8345 12.9997Z" fill="#664E27"/>
<path d="M6.16844 12.9997C7.08891 12.9997 7.83509 12.2536 7.83509 11.3331C7.83509 10.4126 7.08891 9.66645 6.16844 9.66645C5.24798 9.66645 4.50179 10.4126 4.50179 11.3331C4.50179 12.2536 5.24798 12.9997 6.16844 12.9997Z" fill="#664E27"/>
<path d="M7.86534 6.63315C6.79868 7.53314 5.36536 7.93313 3.96538 7.66647C3.76538 7.63314 3.59872 8.33313 3.83205 8.39979C5.43203 8.69979 7.09868 8.23313 8.332 7.19981C8.49866 7.03314 7.99867 6.49982 7.86534 6.63315ZM16.0319 7.63314C14.6319 7.86647 13.1986 7.4998 12.132 6.59982C11.9986 6.46648 11.4653 6.99981 11.6653 7.16648C12.8986 8.23313 14.5653 8.66646 16.1652 8.36646C16.3986 8.29979 16.2319 7.5998 16.0319 7.63314Z" fill="#917524"/>
<path d="M12.6662 16.6665H7.33293C6.83294 16.6665 6.83294 15.3332 7.33293 15.3332H12.6662C13.1662 15.3332 13.1662 16.6665 12.6662 16.6665Z" fill="#664E27"/>
</svg>
