<svg width="15" height="22" viewBox="0 0 15 22" fill="none" xmlns="http://www.w3.org/2000/svg">
<path d="M7.27517 12.8148C7.27517 12.8148 5.65954 12.4843 6.98142 15.2382C7.9361 17.221 7.82595 19.5342 6.98142 20.7459C5.58611 22.692 2.90564 22.0678 3.19939 20.9295C4.15408 17.0741 1.98768 15.8991 0.886117 13.4757C-0.252162 11.0155 -0.142006 7.49057 0.372056 4.3695C0.702524 2.42342 1.54705 0 4.5947 0H8.81735L7.27517 12.8148Z" fill="#FFDD67"/>
<path d="M5.07203 0.550777C2.02438 0.550777 1.36345 2.9742 1.03298 4.92028C0.518919 8.04135 0.445481 10.5382 1.43689 13.0718C2.53845 15.8257 3.67673 15.8991 3.67673 21.3334C3.67673 21.5905 3.8236 21.7741 3.97047 21.9209C3.45641 21.7374 3.16266 21.4436 3.16266 21.003C3.16266 16.9272 2.02438 15.9358 0.922824 13.4757C-0.252173 11.0155 -0.142017 7.49057 0.372044 4.3695C0.702512 2.42342 1.54704 0 4.59469 0H8.81734V0.550777H5.07203Z" fill="#EBA352"/>
<path d="M12.4891 9.62007H7.27507C5.43914 9.62007 5.43914 12.8146 7.27507 12.8146H12.4891C14.3251 12.8146 14.3251 9.62007 12.4891 9.62007Z" fill="#FFDD67"/>
<path d="M12.8933 10.1341H7.67925C6.43082 10.1341 6.06363 11.6028 6.46754 12.5208C5.47613 11.7497 5.76988 9.58329 7.23863 9.58329H12.4894C13.0769 9.58329 13.4808 9.91376 13.7011 10.3911C13.4808 10.2442 13.2238 10.1341 12.8933 10.1341Z" fill="#EBA352"/>
<path d="M13.0397 6.38903H6.79749C4.59437 6.38903 4.59437 9.58354 6.79749 9.58354H13.0764C15.2428 9.58354 15.2428 6.38903 13.0397 6.38903Z" fill="#FFDD67"/>
<path d="M13.5529 6.9398H7.27404C5.8053 6.9398 5.32795 8.40854 5.84202 9.32651C4.66702 8.55542 4.99749 6.38903 6.7967 6.38903H13.0756C13.7732 6.38903 14.2506 6.71949 14.5076 7.19683C14.2506 7.04996 13.9201 6.9398 13.5529 6.9398Z" fill="#EBA352"/>
<path d="M12.4529 3.19427H7.16543C5.32949 3.19427 5.32949 6.38878 7.16543 6.38878H12.4529C14.3256 6.38878 14.3256 3.19427 12.4529 3.19427Z" fill="#FFDD67"/>
<path d="M12.8939 3.7451H7.56969C6.32126 3.7451 5.91735 5.21384 6.35797 6.16852C5.36657 5.39743 5.6236 3.23104 7.16579 3.23104H12.4533C13.0408 3.23104 13.4447 3.56151 13.665 4.03885C13.4814 3.81854 13.1876 3.7451 12.8939 3.7451Z" fill="#EBA352"/>
<path d="M11.9014 0H8.48655C6.50374 0 6.50374 3.19451 8.48655 3.19451H11.9014C13.8842 3.19451 13.8842 0 11.9014 0Z" fill="#FFDD67"/>
<path d="M12.3433 0.514059H8.92847C7.6066 0.514059 7.16597 1.9828 7.64331 2.93748C6.57847 2.16639 6.87222 0 8.48784 0H11.9027C12.5636 0 12.9675 0.330466 13.1878 0.807807C12.9675 0.624214 12.6738 0.514059 12.3433 0.514059Z" fill="#EBA352"/>
</svg>
