<svg width="64" height="52" viewBox="0 0 64 52" fill="none" xmlns="http://www.w3.org/2000/svg">
<path d="M38.7391 25.3939C38.7391 39.4521 31.2724 46 18.7256 46C6.17884 46 0 41.2703 0 27.2121C0 13.154 4.55613 6 17.1029 6C29.6497 6 38.7391 11.3358 38.7391 25.3939Z" fill="#D71920" fill-opacity="0.21"/>
<path d="M62.2109 16.3516H56.1172C55.2758 16.3516 54.5938 17.0337 54.5938 17.875C54.5938 18.7163 55.2758 19.3984 56.1172 19.3984H58.5331L51.1095 26.8219C50.441 23.6843 48.3883 21.0532 45.6234 19.6004C47.2579 18.2022 48.2969 16.127 48.2969 13.8125C48.2969 9.61238 44.8798 6.19531 40.6797 6.19531C36.4796 6.19531 33.0625 9.61238 33.0625 13.8125C33.0625 16.127 34.1015 18.2022 35.7359 19.6003C33.1854 20.9406 31.2407 23.2832 30.4296 26.1016C30.2389 25.8831 30.0392 25.6709 29.8294 25.4666C29.0824 24.7387 28.246 24.1331 27.3458 23.6599C28.9782 22.2617 30.0156 20.1878 30.0156 17.875C30.0156 13.6749 26.5986 10.2578 22.3984 10.2578C18.1983 10.2578 14.7812 13.6749 14.7812 17.875C14.7812 20.1895 15.8202 22.2647 17.4547 23.6628C14.0572 25.4481 11.7344 29.0123 11.7344 33.1094V44.2812C11.7344 45.1226 12.4165 45.8047 13.2578 45.8047H25.6484C26.0526 45.8047 26.44 45.6442 26.7256 45.3584L37.8359 34.2482L41.8369 38.2491C42.4317 38.844 43.3964 38.844 43.9913 38.2491L60.6875 21.5529V23.9688C60.6875 24.8101 61.3696 25.4922 62.2109 25.4922C63.0523 25.4922 63.7344 24.8101 63.7344 23.9688V17.875C63.7344 17.0337 63.0523 16.3516 62.2109 16.3516ZM36.1094 13.8125C36.1094 11.2924 38.1596 9.24219 40.6797 9.24219C43.1998 9.24219 45.25 11.2924 45.25 13.8125C45.25 16.3326 43.1998 18.3828 40.6797 18.3828C38.1596 18.3828 36.1094 16.3326 36.1094 13.8125ZM17.8281 17.875C17.8281 15.3549 19.8784 13.3047 22.3984 13.3047C24.9185 13.3047 26.9688 15.3549 26.9688 17.875C26.9688 20.3951 24.9185 22.4453 22.3984 22.4453C19.8784 22.4453 17.8281 20.3951 17.8281 17.875ZM25.0174 42.7578H14.7812V33.1094C14.7812 28.9093 18.1983 25.4922 22.3984 25.4922C24.392 25.4922 26.2758 26.2581 27.7029 27.6487C29.1273 29.0366 29.944 30.8953 30.0027 32.8823C30.0044 32.9359 30.0088 32.9887 30.0157 33.0407V37.7595L25.0174 42.7578ZM42.9141 35.0174L38.9131 31.0165C38.3183 30.4216 37.3536 30.4216 36.7587 31.0165L33.0625 34.7127V29.0469C33.0625 24.8468 36.4796 21.4297 40.6797 21.4297C44.8798 21.4297 48.2969 24.8468 48.2969 29.0469V29.6346L42.9141 35.0174Z" fill="#D71920"/>
</svg>
