<svg width="22" height="22" viewBox="0 0 22 22" fill="none" xmlns="http://www.w3.org/2000/svg">
<path d="M21.9399 6.46812C21.8884 5.29936 21.6993 4.49565 21.4284 3.7992C21.1493 3.06011 20.7196 2.39805 20.1565 1.84803C19.6065 1.28909 18.9403 0.855258 18.2095 0.580257C17.5089 0.309389 16.7093 0.120306 15.5405 0.0687555C14.3628 0.0130713 13.9888 0 11.0023 0C8.01502 0 7.64102 0.0130713 6.46812 0.0646222C5.29867 0.116194 4.49564 0.305256 3.79919 0.576145C3.05943 0.855258 2.39804 1.28495 1.84803 1.84803C1.28909 2.39805 0.855258 3.06425 0.580257 3.79507C0.309379 4.49565 0.120306 5.29453 0.068745 6.46401C0.0123684 7.6417 0 8.01572 0 11.0023C0 13.9895 0.0123684 14.3635 0.0639298 15.5364C0.115502 16.7052 0.305256 17.5089 0.575442 18.2054C0.855258 18.9444 1.28909 19.6065 1.84803 20.1565C2.39804 20.7155 3.06425 21.1493 3.79507 21.4243C4.49564 21.6952 5.29453 21.8842 6.464 21.9358C7.63689 21.9874 8.0109 22.0004 10.9981 22.0004C13.9847 22.0004 14.3587 21.9874 15.5323 21.9358C16.7011 21.8842 17.5048 21.6952 18.2012 21.4243C19.6794 20.853 20.8481 19.6842 21.4202 18.2054C21.691 17.5048 21.8801 16.7052 21.9317 15.5364C21.9832 14.3635 21.9956 13.9895 21.9956 11.0023C21.9956 8.01572 21.9915 7.6417 21.9399 6.46812ZM19.9585 15.4505C19.9118 16.5251 19.7309 17.1053 19.5804 17.4917C19.2112 18.4508 18.4501 19.2112 17.4917 19.5811C17.1053 19.731 16.5203 19.9118 15.4505 19.9592C14.29 20.0108 13.9421 20.0231 11.0064 20.0231C8.07072 20.0231 7.71871 20.0108 6.56231 19.9592C5.48773 19.9118 4.90747 19.731 4.52108 19.5811C4.04395 19.4044 3.61013 19.1252 3.25743 18.7602C2.89237 18.4034 2.61254 17.9737 2.43654 17.4965C2.28598 17.1094 2.10585 16.5251 2.05841 15.4546C2.00685 14.2948 1.99378 13.9462 1.99378 11.0112C1.99378 8.07553 2.00685 7.72284 2.05841 6.56713C2.10585 5.49255 2.28598 4.91228 2.43654 4.52591C2.61254 4.04877 2.89237 3.61425 3.26156 3.26225C3.61838 2.8965 4.04808 2.61737 4.52521 2.44136C4.91228 2.2908 5.49667 2.10998 6.56712 2.06323C7.72696 2.01166 8.07552 1.99861 11.0105 1.99861C13.9503 1.99861 14.2982 2.01166 15.4546 2.06323C16.5292 2.10998 17.1094 2.2908 17.4958 2.44136C17.973 2.61737 18.4075 2.8965 18.7595 3.26225C19.1252 3.61838 19.4044 4.04877 19.5804 4.52591C19.7309 4.91228 19.9118 5.49667 19.9585 6.56713C20.0101 7.72764 20.0231 8.07553 20.0231 11.0112C20.0231 13.9462 20.0101 14.29 19.9585 15.4505Z" fill="white"/>
<path d="M10.9996 5.3482C7.87963 5.3482 5.3482 7.87963 5.3482 11.0003C5.3482 14.1202 7.87963 16.6516 10.9996 16.6516C14.1202 16.6516 16.6516 14.1202 16.6516 11.0003C16.6516 7.87963 14.1202 5.3482 10.9996 5.3482ZM10.9996 14.6661C8.97552 14.6661 7.33374 13.0243 7.33374 11.0003C7.33374 8.97552 8.97552 7.33374 10.9996 7.33374C13.0243 7.33374 14.6661 8.97552 14.6661 11.0003C14.6661 13.0243 13.0243 14.6661 10.9996 14.6661Z" fill="white"/>
<path d="M18.197 5.12618C18.197 5.85501 17.6063 6.44565 16.8775 6.44565C16.1487 6.44565 15.558 5.85501 15.558 5.12618C15.558 4.39735 16.1487 3.80671 16.8775 3.80671C17.6063 3.80671 18.197 4.39735 18.197 5.12618Z" fill="white"/>
</svg>
