<svg width="24" height="20" viewBox="0 0 24 20" fill="none" xmlns="http://www.w3.org/2000/svg">
<path d="M24 2.31502C23.1076 2.70773 22.1563 2.96822 21.1649 3.09456C22.1851 2.48388 22.9637 1.52372 23.3299 0.367167C22.3786 0.935955 21.3289 1.33718 20.2095 1.56167C19.3064 0.597571 18.0198 0 16.6159 0C13.8919 0 11.6988 2.21751 11.6988 4.93505C11.6988 5.32646 11.7315 5.7028 11.8126 6.06018C7.72218 5.86054 4.10242 3.89437 1.67096 0.899962C1.24653 1.63825 0.997483 2.48388 0.997483 3.39367C0.997483 5.10261 1.87514 6.61716 3.18327 7.49421C2.39264 7.47917 1.6174 7.24877 0.959994 6.88618C0.959994 6.90122 0.959994 6.92085 0.959994 6.94049C0.959994 9.338 2.66577 11.3297 4.90243 11.7885C4.50142 11.8978 4.06493 11.9508 3.61238 11.9508C3.29706 11.9508 2.97907 11.9325 2.6805 11.8664C3.31782 13.8201 5.12736 15.2568 7.27834 15.3033C5.60402 16.6162 3.47848 17.4075 1.17758 17.4075C0.773895 17.4075 0.386948 17.3899 0 17.3401C2.17974 18.7493 4.7625 19.5537 7.54812 19.5537C16.6018 19.5537 21.5525 12.0333 21.5525 5.5143C21.5525 5.29634 21.5444 5.08559 21.5344 4.8768C22.5105 4.1817 23.3312 3.31381 24 2.31502Z" fill="white"/>
</svg>
