<svg width="20" height="24" viewBox="0 0 20 24" fill="none" xmlns="http://www.w3.org/2000/svg">
<path d="M19.6425 9.33587C19.6425 9.33587 18.4852 10.4161 16.5177 11.6891C15.9776 8.56431 14.4731 4.70651 11.5411 0C11.5411 0 10.5767 5.05372 7.37469 9.79881C5.98588 7.63844 5.36863 5.94101 5.36863 5.94101C-4.66166 16.0099 3.6712 23.1468 8.91782 23.1468C15.6304 23.1468 21.5328 19.9062 19.6425 9.33587Z" fill="#FF9D33"/>
<path d="M15.6686 18.2858C16.2472 17.0128 16.6716 15.3539 16.7487 13.2707C16.7487 13.2707 15.9386 13.9651 14.5498 14.8524C14.164 12.7692 13.1224 10.223 11.0778 7.05965C11.0778 7.05965 10.4219 10.4159 8.18442 13.6179C7.21997 12.1905 6.79561 11.0332 6.79561 11.0332C5.13675 13.6565 4.48093 15.7397 4.44235 17.3986C3.51648 17.0514 2.9378 16.7813 2.9378 16.7813C4.5195 21.4878 7.79864 22.5294 9.26461 22.5294C11.8879 22.5294 14.5498 21.7579 17.1731 18.0158C17.1731 17.9772 16.5944 18.1315 15.6686 18.2858Z" fill="#FFCE31"/>
<path d="M6.10165 16.1644C6.10165 16.1644 7.18184 17.6304 7.99198 17.2832C7.99198 17.2832 9.5351 14.8528 11.7726 13.5025C11.7726 13.5025 11.3097 17.206 11.8498 17.8618C12.5442 18.7491 14.4345 16.8974 14.4345 16.8974C14.4345 19.0963 12.0427 21.8354 9.8823 21.8354C7.79909 21.8354 4.79 19.4435 6.10165 16.1644Z" fill="#FFDF85"/>
<path d="M16.8648 6.211C17.6749 5.05366 18.215 3.81917 18.215 3.81917C19.5652 6.05669 18.7551 7.40692 18.1764 7.83128C17.3663 8.44853 15.9389 7.56123 16.8648 6.211ZM2.12795 5.82522C1.31781 4.47499 1.24065 2.77756 1.24065 2.77756C-0.688251 5.67091 0.0447325 7.29119 0.70056 7.75412C1.54928 8.40995 3.01524 7.40692 2.12795 5.82522ZM6.603 2.81614C6.71874 1.89027 6.33296 0.964396 6.33296 0.964396C8.14613 2.16031 8.14613 3.16334 7.91466 3.5877C7.56745 4.08921 6.48727 3.85775 6.603 2.81614Z" fill="#FF9D33"/>
</svg>
