<svg width="42" height="36" viewBox="0 0 42 36" fill="none" xmlns="http://www.w3.org/2000/svg">
<path d="M31.0992 15.1169C31.0992 26.0747 25.1051 31.1786 15.0327 31.1786C4.96029 31.1786 0 27.4919 0 16.5341C0 5.57626 3.6576 0 13.73 0C23.8024 0 31.0992 4.15905 31.0992 15.1169Z" fill="#F2CF7A" fill-opacity="0.44"/>
<path d="M10.625 32.7318C10.2798 32.7318 10 33.0117 10 33.3568C10 33.702 10.2798 33.9818 10.625 33.9818H41.375C41.7201 33.9818 42 33.702 42 33.3568C42 33.0117 41.7201 32.7318 41.375 32.7318H40.175V29.3553C40.175 29.0102 39.8951 28.7303 39.55 28.7303C39.2049 28.7303 38.925 29.0102 38.925 29.3553V32.7318H21.8262V23.4413C21.8262 23.0961 21.5464 22.8163 21.2012 22.8163H15.6922C15.347 22.8163 15.0672 23.0961 15.0672 23.4413V32.7318H13.075V20.7566C13.2894 20.793 13.5085 20.81 13.7259 20.8084C14.942 20.8001 16.0979 20.1736 16.775 19.1645C17.4571 20.181 18.6249 20.8091 19.85 20.8091C21.0743 20.8091 22.2441 20.1811 22.925 19.1645C23.6093 20.18 24.7732 20.8091 26 20.8091C27.225 20.8091 28.3933 20.1808 29.075 19.1645C29.7261 20.135 30.8226 20.7553 31.9911 20.805C33.2712 20.8594 34.5116 20.2278 35.225 19.1645C36.0305 20.3652 37.4984 20.9985 38.925 20.7566V23.8661C38.925 24.2113 39.2049 24.4911 39.55 24.4911C39.8951 24.4911 40.175 24.2113 40.175 23.8661V20.297C41.2661 19.6528 42 18.4653 42 17.1091V13.8469C42 12.8385 41.2406 11.9506 40.2432 11.7962L36.1964 6.78845C35.8006 6.29852 35.2124 6.01758 34.5825 6.01758H17.4234C16.7883 6.01758 16.1969 6.30245 15.8009 6.79908L11.8199 11.7926C10.8289 11.9358 10.0177 12.808 10 13.8102V15.9298V15.9352V17.1091C10 18.4653 10.7339 19.6527 11.825 20.297V32.7318H10.625ZM16.3172 24.0663H20.5762V32.7318H16.3172V24.0663ZM34.6 17.1088C34.6 18.4598 33.5009 19.5588 32.1501 19.5588C30.7991 19.5588 29.7001 18.4598 29.7001 17.1088V16.5602H34.6V17.1088ZM34.6 15.3102H29.7V13.0219H34.6V15.3102ZM40.75 17.1091C40.75 18.4428 39.6332 19.5588 38.3 19.5588C36.9491 19.5588 35.85 18.4598 35.85 17.1088V16.5602H40.75V17.1091ZM40.75 13.8469V15.3102H35.85V13.0219H39.925C40.3799 13.0219 40.75 13.392 40.75 13.8469ZM34.5824 7.26758C34.8329 7.26758 35.0667 7.37927 35.2241 7.57402L38.6164 11.7718H35.5964L33.1452 7.26758H34.5824ZM31.7221 7.26758L34.1733 11.7718H29.6239L29.0368 7.26758H31.7221ZM24.1672 7.26758H27.7762L28.3633 11.7718H23.6291L24.1672 7.26758ZM23.55 13.0219H28.45V15.3102H23.55V13.0219ZM23.55 16.5602H28.45V17.1088C28.45 18.4598 27.3509 19.5588 26 19.5588C24.6491 19.5588 23.55 18.4598 23.55 17.1088V16.5602ZM22.3 17.1088C22.3 18.4598 21.2009 19.5588 19.85 19.5588C18.4991 19.5588 17.4 18.4598 17.4 17.1088V17.1088C17.4 17.1033 17.3999 17.0979 17.3998 17.0925L17.3856 16.5602H22.3V17.1088ZM22.3 15.3102H17.3688V13.0219H22.3V15.3102ZM20.2762 7.26758H22.9084L22.3702 11.7718H17.8005L20.2762 7.26758ZM16.7783 7.57833C16.9358 7.38089 17.1709 7.26758 17.4234 7.26758H18.8499L16.3741 11.7718H13.4351L16.7783 7.57833ZM11.2873 13.8323C11.2951 13.3854 11.6651 13.0218 12.1121 13.0218H12.1375H16.1188V15.3101H11.2873V13.8323ZM11.25 17.1091V16.5602H16.1351L16.1499 17.1135C16.1474 18.443 15.0326 19.5589 13.7 19.5589C12.3668 19.5588 11.25 18.4428 11.25 17.1091Z" fill="#755403"/>
<path d="M28.3267 23.918H24.9365C24.5913 23.918 24.3115 24.1978 24.3115 24.543V28.689H24.1602C23.815 28.689 23.5352 28.9689 23.5352 29.314C23.5352 29.6592 23.815 29.939 24.1602 29.939H29.1031C29.4482 29.939 29.7281 29.6592 29.7281 29.314C29.7281 28.9689 29.4482 28.689 29.1031 28.689H28.9517V24.543C28.9517 24.1978 28.6718 23.918 28.3267 23.918ZM27.7017 28.689H25.5615V25.168H27.7017V28.689Z" fill="#755403"/>
<path d="M36.0649 23.918H32.6748C32.3297 23.918 32.0498 24.1978 32.0498 24.543V28.689H31.8984C31.5533 28.689 31.2734 28.9689 31.2734 29.314C31.2734 29.6592 31.5533 29.939 31.8984 29.939H36.8414C37.1865 29.939 37.4664 29.6592 37.4664 29.314C37.4664 28.9689 37.1865 28.689 36.8414 28.689H36.6899V24.543C36.6899 24.1978 36.4101 23.918 36.0649 23.918ZM35.4399 28.689H33.2998V25.168H35.4399V28.689Z" fill="#755403"/>
<path d="M17.0285 28.6655C17.1395 28.9745 17.4818 29.1491 17.7976 29.053C18.1443 28.9474 18.3331 28.5516 18.1932 28.2161C17.8893 27.4861 16.7628 27.9253 17.0285 28.6655Z" fill="#755403"/>
<path d="M39.1785 26.0306C38.9099 26.2299 38.8473 26.6159 39.0383 26.8902C39.2297 27.1653 39.6187 27.2365 39.897 27.0516C40.1805 26.8634 40.258 26.4678 40.0695 26.1854C39.8768 25.8906 39.4592 25.8224 39.1785 26.0306Z" fill="#755403"/>
</svg>
