<svg width="43" height="36" viewBox="0 0 43 36" fill="none" xmlns="http://www.w3.org/2000/svg">
<path d="M31.1786 15.1169C31.1786 26.0747 25.1691 31.1786 15.071 31.1786C4.97295 31.1786 0 27.4919 0 16.5341C0 5.57626 3.66694 0 13.765 0C23.8631 0 31.1786 4.15905 31.1786 15.1169Z" fill="#F2CF7A" fill-opacity="0.44"/>
<g clip-path="url(#clip0_0_378)">
<path d="M41.6369 13.4577H34.9078V12.6557C34.9078 12.3957 34.697 12.1849 34.4369 12.1849C34.1769 12.1849 33.9661 12.3957 33.9661 12.6557L33.9658 35.0586H30.1076V28.3293C30.1076 28.0692 29.8968 27.8584 29.6368 27.8584H27.2349C26.9748 27.8584 26.764 28.0692 26.764 28.3293C26.764 28.5893 26.9748 28.8001 27.2349 28.8001H29.166V30.2585H22.9068V28.8001H25.1826C25.4426 28.8001 25.6534 28.5893 25.6534 28.3293C25.6534 28.0692 25.4426 27.8584 25.1826 27.8584H22.436C22.176 27.8584 21.9651 28.0692 21.9651 28.3293V35.0586H18.107L18.1067 9.59898H21.9655V11.5285C21.9655 11.7885 22.1763 11.9993 22.4363 11.9993H29.6365C29.8965 11.9993 30.1073 11.7885 30.1073 11.5285V9.59898H33.9661V10.6035C33.9661 10.8635 34.1769 11.0743 34.4369 11.0743C34.697 11.0743 34.9078 10.8635 34.9078 10.6035V9.59898H35.6366C35.8967 9.59898 36.1075 9.38817 36.1075 9.12814V6.72808C36.1075 6.46804 35.8967 6.25723 35.6366 6.25723H30.1073V4.32827C30.1073 4.06824 29.8965 3.85742 29.6365 3.85742H22.4363C22.1763 3.85742 21.9655 4.06824 21.9655 4.32827V6.25723H16.4362C16.1761 6.25723 15.9653 6.46804 15.9653 6.72808V9.12814C15.9653 9.38817 16.1761 9.59898 16.4362 9.59898H17.165V13.4574H15.0619C14.8019 13.4574 14.5911 13.6682 14.5911 13.9283C14.5911 14.1883 14.8019 14.3991 15.0619 14.3991H17.165V15.8575H10.9065V14.3991H13.0096C13.2697 14.3991 13.4805 14.1883 13.4805 13.9283C13.4805 13.6682 13.2697 13.4574 13.0096 13.4574H10.4357C10.1757 13.4574 9.96484 13.6682 9.96484 13.9283L9.96516 35.5292C9.96516 35.7892 10.176 36 10.436 36H41.6369C41.8969 36 42.1077 35.7892 42.1077 35.5292V13.9286C42.1077 13.6685 41.8969 13.4577 41.6369 13.4577ZM30.1073 7.19892H35.1658V8.65729H30.1073V7.19892ZM22.9072 4.79911H29.1656V11.0576H22.9072V4.79911ZM17.165 35.0583H10.9069V16.7995H17.165V35.0583ZM16.907 8.65729V7.19892H21.9655V8.65729H16.907ZM22.9068 35.0586V31.2002H25.5656V35.0586H22.9068ZM26.5072 35.0586V31.2002H29.166V35.0586H26.5072ZM41.166 35.0583H34.9078V16.7995H41.166V35.0583ZM41.166 15.8578H34.9078V14.3994H41.166V15.8578Z" fill="#755403"/>
<path d="M27.2361 6.25781C26.9761 6.25781 26.7653 6.46862 26.7653 6.72866V7.45783H25.3069V6.72866C25.3069 6.46862 25.0961 6.25781 24.8361 6.25781C24.576 6.25781 24.3652 6.46862 24.3652 6.72866V9.1287C24.3652 9.38873 24.576 9.59954 24.8361 9.59954C25.0961 9.59954 25.3069 9.38873 25.3069 9.1287V8.39952H26.7653V9.1287C26.7653 9.38873 26.9761 9.59954 27.2361 9.59954C27.4961 9.59954 27.707 9.38873 27.707 9.1287V6.72866C27.707 6.46862 27.4961 6.25781 27.2361 6.25781Z" fill="#755403"/>
<path d="M22.9081 13.9279C22.9081 13.6678 22.6973 13.457 22.4373 13.457H20.0372C19.7772 13.457 19.5664 13.6678 19.5664 13.9279V18.728C19.5664 18.988 19.7772 19.1988 20.0372 19.1988H22.4373C22.6973 19.1988 22.9081 18.988 22.9081 18.728V13.9279ZM21.9664 18.2571H20.5081V16.7988H21.9664V18.2571ZM21.9664 15.8571H20.5081V14.3987H21.9664V15.8571Z" fill="#755403"/>
<path d="M27.707 13.9279C27.707 13.6678 27.4961 13.457 27.2361 13.457H24.8361C24.576 13.457 24.3652 13.6678 24.3652 13.9279V18.728C24.3652 18.988 24.576 19.1988 24.8361 19.1988H27.2361C27.4961 19.1988 27.707 18.988 27.707 18.728V13.9279ZM26.7653 18.2571H25.3069V16.7988H26.7653V18.2571ZM26.7653 15.8571H25.3069V14.3987H26.7653V15.8571Z" fill="#755403"/>
<path d="M32.5077 13.9279C32.5077 13.6678 32.2969 13.457 32.0369 13.457H29.6369C29.3768 13.457 29.166 13.6678 29.166 13.9279V18.728C29.166 18.988 29.3768 19.1988 29.6369 19.1988H32.0369C32.2969 19.1988 32.5077 18.988 32.5077 18.728V13.9279ZM31.5661 18.2571H30.1077V16.7988H31.5661V18.2571ZM31.5661 15.8571H30.1077V14.3987H31.5661V15.8571Z" fill="#755403"/>
<path d="M22.4373 20.6582H20.0372C19.7772 20.6582 19.5664 20.869 19.5664 21.129V25.9291C19.5664 26.1892 19.7772 26.4 20.0372 26.4H22.4373C22.6973 26.4 22.9081 26.1892 22.9081 25.9291V21.129C22.9081 20.869 22.6973 20.6582 22.4373 20.6582ZM21.9664 25.4583H20.5081V23.9999H21.9664V25.4583ZM21.9664 23.0582H20.5081V21.5999H21.9664V23.0582Z" fill="#755403"/>
<path d="M27.2361 20.6582H24.8361C24.576 20.6582 24.3652 20.869 24.3652 21.129V25.9291C24.3652 26.1892 24.576 26.4 24.8361 26.4H27.2361C27.4961 26.4 27.707 26.1892 27.707 25.9291V21.129C27.707 20.869 27.4961 20.6582 27.2361 20.6582ZM26.7653 25.4583H25.3069V23.9999H26.7653V25.4583ZM26.7653 23.0582H25.3069V21.5999H26.7653V23.0582Z" fill="#755403"/>
<path d="M32.0369 20.6582H29.6369C29.3768 20.6582 29.166 20.869 29.166 21.129V25.9291C29.166 26.1892 29.3768 26.4 29.6369 26.4H32.0369C32.2969 26.4 32.5077 26.1892 32.5077 25.9291V21.129C32.5077 20.869 32.2969 20.6582 32.0369 20.6582ZM31.5661 25.4583H30.1077V23.9999H31.5661V25.4583ZM31.5661 23.0582H30.1077V21.5999H31.5661V23.0582Z" fill="#755403"/>
<path d="M36.8361 23.9996H39.2361C39.4961 23.9996 39.707 23.7888 39.707 23.5287V18.7287C39.707 18.4686 39.4961 18.2578 39.2361 18.2578H36.8361C36.576 18.2578 36.3652 18.4686 36.3652 18.7287V23.5287C36.3652 23.7888 36.576 23.9996 36.8361 23.9996ZM37.3069 19.1996H38.7653V20.6579H37.3069V19.1996ZM37.3069 21.5995H38.7653V23.0579H37.3069V21.5995Z" fill="#755403"/>
<path d="M36.8361 31.1989H39.2361C39.4961 31.1989 39.707 30.9881 39.707 30.728V25.9279C39.707 25.6678 39.4961 25.457 39.2361 25.457H36.8361C36.576 25.457 36.3652 25.6678 36.3652 25.9279V30.728C36.3652 30.9881 36.576 31.1989 36.8361 31.1989ZM37.3069 26.3987H38.7653V27.8571H37.3069V26.3987ZM37.3069 28.7988H38.7653V30.2571H37.3069V28.7988Z" fill="#755403"/>
<path d="M12.8361 23.9996H15.2361C15.4961 23.9996 15.707 23.7888 15.707 23.5287V18.7287C15.707 18.4686 15.4961 18.2578 15.2361 18.2578H12.8361C12.576 18.2578 12.3652 18.4686 12.3652 18.7287V23.5287C12.3652 23.7888 12.576 23.9996 12.8361 23.9996ZM13.3069 19.1996H14.7653V20.6579H13.3069V19.1996ZM13.3069 21.5995H14.7653V23.0579H13.3069V21.5995Z" fill="#755403"/>
<path d="M12.8361 31.1988H15.2361C15.4961 31.1988 15.707 30.988 15.707 30.728V25.9279C15.707 25.6678 15.4961 25.457 15.2361 25.457H12.8361C12.576 25.457 12.3652 25.6678 12.3652 25.9279V30.728C12.3652 30.988 12.576 31.1988 12.8361 31.1988ZM13.3069 26.3987H14.7653V27.8571H13.3069V26.3987ZM13.3069 28.7988H14.7653V30.2571H13.3069V28.7988Z" fill="#755403"/>
</g>
<defs>
<clipPath id="clip0_0_378">
<rect width="32.1429" height="32.1429" fill="white" transform="translate(9.96484 3.85742)"/>
</clipPath>
</defs>
</svg>
